<mxfile host="app.diagrams.net" agent="Mozilla/5.0 (Macintosh; Intel Mac OS X 10_15_7) AppleWebKit/537.36 (KHTML, like Gecko) Chrome/128.0.0.0 Safari/537.36" version="24.7.12">
  <diagram name="第 1 页" id="c3EcTnjNv6WKQcdi2uHx">
    <mxGraphModel dx="928" dy="625" grid="0" gridSize="10" guides="1" tooltips="1" connect="1" arrows="1" fold="1" page="0" pageScale="1" pageWidth="827" pageHeight="1169" math="0" shadow="0">
      <root>
        <mxCell id="0" />
        <mxCell id="1" parent="0" />
        <mxCell id="gmvneLOKdEyDjxOqlReS-5" style="edgeStyle=orthogonalEdgeStyle;rounded=0;orthogonalLoop=1;jettySize=auto;html=1;exitX=0.5;exitY=1;exitDx=0;exitDy=0;" edge="1" parent="1" source="gmvneLOKdEyDjxOqlReS-1" target="gmvneLOKdEyDjxOqlReS-3">
          <mxGeometry relative="1" as="geometry" />
        </mxCell>
        <mxCell id="gmvneLOKdEyDjxOqlReS-6" style="edgeStyle=orthogonalEdgeStyle;rounded=0;orthogonalLoop=1;jettySize=auto;html=1;exitX=0.5;exitY=1;exitDx=0;exitDy=0;entryX=0.5;entryY=0;entryDx=0;entryDy=0;" edge="1" parent="1" source="gmvneLOKdEyDjxOqlReS-1" target="gmvneLOKdEyDjxOqlReS-4">
          <mxGeometry relative="1" as="geometry" />
        </mxCell>
        <mxCell id="gmvneLOKdEyDjxOqlReS-1" value="&lt;div&gt;/&lt;/div&gt;&lt;div&gt;install.sh&lt;/div&gt;" style="rounded=1;whiteSpace=wrap;html=1;" vertex="1" parent="1">
          <mxGeometry x="308" y="59" width="120" height="60" as="geometry" />
        </mxCell>
        <mxCell id="gmvneLOKdEyDjxOqlReS-8" style="edgeStyle=orthogonalEdgeStyle;rounded=0;orthogonalLoop=1;jettySize=auto;html=1;exitX=0.5;exitY=1;exitDx=0;exitDy=0;entryX=0.5;entryY=0;entryDx=0;entryDy=0;" edge="1" parent="1" source="gmvneLOKdEyDjxOqlReS-3" target="gmvneLOKdEyDjxOqlReS-7">
          <mxGeometry relative="1" as="geometry" />
        </mxCell>
        <mxCell id="gmvneLOKdEyDjxOqlReS-3" value="/_install/bin&lt;div&gt;smarco-vpu-mcopymode.sh&lt;/div&gt;" style="rounded=1;whiteSpace=wrap;html=1;" vertex="1" parent="1">
          <mxGeometry x="132" y="160" width="160" height="55" as="geometry" />
        </mxCell>
        <mxCell id="gmvneLOKdEyDjxOqlReS-12" style="edgeStyle=orthogonalEdgeStyle;rounded=0;orthogonalLoop=1;jettySize=auto;html=1;exitX=0.5;exitY=1;exitDx=0;exitDy=0;entryX=0.5;entryY=0;entryDx=0;entryDy=0;" edge="1" parent="1" source="gmvneLOKdEyDjxOqlReS-4" target="gmvneLOKdEyDjxOqlReS-9">
          <mxGeometry relative="1" as="geometry">
            <mxPoint x="518.5" y="218" as="sourcePoint" />
          </mxGeometry>
        </mxCell>
        <mxCell id="gmvneLOKdEyDjxOqlReS-13" style="edgeStyle=orthogonalEdgeStyle;rounded=0;orthogonalLoop=1;jettySize=auto;html=1;exitX=0.5;exitY=1;exitDx=0;exitDy=0;entryX=0.5;entryY=0;entryDx=0;entryDy=0;" edge="1" parent="1" source="gmvneLOKdEyDjxOqlReS-4" target="gmvneLOKdEyDjxOqlReS-10">
          <mxGeometry relative="1" as="geometry">
            <mxPoint x="518.5" y="218" as="sourcePoint" />
          </mxGeometry>
        </mxCell>
        <mxCell id="gmvneLOKdEyDjxOqlReS-14" style="edgeStyle=orthogonalEdgeStyle;rounded=0;orthogonalLoop=1;jettySize=auto;html=1;exitX=0.5;exitY=1;exitDx=0;exitDy=0;entryX=0.5;entryY=0;entryDx=0;entryDy=0;" edge="1" parent="1" source="gmvneLOKdEyDjxOqlReS-4" target="gmvneLOKdEyDjxOqlReS-11">
          <mxGeometry relative="1" as="geometry">
            <mxPoint x="518.5" y="218" as="sourcePoint" />
          </mxGeometry>
        </mxCell>
        <mxCell id="gmvneLOKdEyDjxOqlReS-4" value="/_install/bin&lt;div&gt;build_and_install_driver.sh&lt;br&gt;&lt;/div&gt;" style="rounded=1;whiteSpace=wrap;html=1;" vertex="1" parent="1">
          <mxGeometry x="445" y="160" width="153" height="55" as="geometry" />
        </mxCell>
        <mxCell id="gmvneLOKdEyDjxOqlReS-7" value="dma configure" style="rounded=1;whiteSpace=wrap;html=1;" vertex="1" parent="1">
          <mxGeometry x="152" y="251" width="120" height="60" as="geometry" />
        </mxCell>
        <mxCell id="gmvneLOKdEyDjxOqlReS-9" value="export PLX_SDK_DIR" style="rounded=1;whiteSpace=wrap;html=1;" vertex="1" parent="1">
          <mxGeometry x="382" y="259" width="81" height="60" as="geometry" />
        </mxCell>
        <mxCell id="gmvneLOKdEyDjxOqlReS-10" value="&lt;div style=&quot;text-align: start;&quot;&gt;&lt;span style=&quot;text-align: center;&quot;&gt;/driver/Bin&lt;/span&gt;&lt;br&gt;&lt;/div&gt;&lt;div style=&quot;text-align: start;&quot;&gt;Plx_unload&lt;/div&gt;" style="rounded=1;whiteSpace=wrap;html=1;" vertex="1" parent="1">
          <mxGeometry x="481" y="259" width="81" height="60" as="geometry" />
        </mxCell>
        <mxCell id="gmvneLOKdEyDjxOqlReS-18" style="edgeStyle=orthogonalEdgeStyle;rounded=0;orthogonalLoop=1;jettySize=auto;html=1;exitX=0.5;exitY=1;exitDx=0;exitDy=0;entryX=0.5;entryY=0;entryDx=0;entryDy=0;" edge="1" parent="1" source="gmvneLOKdEyDjxOqlReS-11" target="gmvneLOKdEyDjxOqlReS-16">
          <mxGeometry relative="1" as="geometry" />
        </mxCell>
        <mxCell id="gmvneLOKdEyDjxOqlReS-19" style="edgeStyle=orthogonalEdgeStyle;rounded=0;orthogonalLoop=1;jettySize=auto;html=1;exitX=0.5;exitY=1;exitDx=0;exitDy=0;entryX=0.5;entryY=0;entryDx=0;entryDy=0;" edge="1" parent="1" source="gmvneLOKdEyDjxOqlReS-11" target="gmvneLOKdEyDjxOqlReS-17">
          <mxGeometry relative="1" as="geometry" />
        </mxCell>
        <mxCell id="gmvneLOKdEyDjxOqlReS-11" value="&lt;div style=&quot;&quot;&gt;/driver/Bin&lt;/div&gt;&lt;div style=&quot;&quot;&gt;build.sh&lt;/div&gt;" style="rounded=1;whiteSpace=wrap;html=1;align=center;" vertex="1" parent="1">
          <mxGeometry x="579" y="259" width="81" height="60" as="geometry" />
        </mxCell>
        <mxCell id="gmvneLOKdEyDjxOqlReS-16" value="&lt;div style=&quot;&quot;&gt;/Driver&lt;/div&gt;&lt;div style=&quot;&quot;&gt;builddriver&lt;/div&gt;" style="rounded=1;whiteSpace=wrap;html=1;align=center;" vertex="1" parent="1">
          <mxGeometry x="536" y="380" width="81" height="60" as="geometry" />
        </mxCell>
        <mxCell id="gmvneLOKdEyDjxOqlReS-17" value="&lt;div style=&quot;&quot;&gt;/driver/Bin&lt;/div&gt;&lt;div style=&quot;&quot;&gt;Plx_load&lt;/div&gt;" style="rounded=1;whiteSpace=wrap;html=1;align=center;" vertex="1" parent="1">
          <mxGeometry x="628" y="380" width="81" height="60" as="geometry" />
        </mxCell>
        <mxCell id="gmvneLOKdEyDjxOqlReS-30" style="edgeStyle=orthogonalEdgeStyle;rounded=0;orthogonalLoop=1;jettySize=auto;html=1;exitX=0.5;exitY=1;exitDx=0;exitDy=0;entryX=0.5;entryY=0;entryDx=0;entryDy=0;" edge="1" parent="1" source="gmvneLOKdEyDjxOqlReS-20" target="gmvneLOKdEyDjxOqlReS-22">
          <mxGeometry relative="1" as="geometry" />
        </mxCell>
        <mxCell id="gmvneLOKdEyDjxOqlReS-20" value="1. &lt;strong&gt;设置 PLX SDK 目录&lt;/strong&gt;" style="rounded=1;whiteSpace=wrap;html=1;" vertex="1" parent="1">
          <mxGeometry x="822" y="141" width="138" height="60" as="geometry" />
        </mxCell>
        <mxCell id="gmvneLOKdEyDjxOqlReS-31" style="edgeStyle=orthogonalEdgeStyle;rounded=0;orthogonalLoop=1;jettySize=auto;html=1;exitX=0.5;exitY=1;exitDx=0;exitDy=0;entryX=0.5;entryY=0;entryDx=0;entryDy=0;" edge="1" parent="1" source="gmvneLOKdEyDjxOqlReS-22" target="gmvneLOKdEyDjxOqlReS-23">
          <mxGeometry relative="1" as="geometry" />
        </mxCell>
        <mxCell id="gmvneLOKdEyDjxOqlReS-22" value="2. &lt;strong&gt;检查 &lt;code&gt;insmod&lt;/code&gt; 命令&lt;/strong&gt;" style="rounded=1;whiteSpace=wrap;html=1;" vertex="1" parent="1">
          <mxGeometry x="822" y="222" width="138" height="60" as="geometry" />
        </mxCell>
        <mxCell id="gmvneLOKdEyDjxOqlReS-32" style="edgeStyle=orthogonalEdgeStyle;rounded=0;orthogonalLoop=1;jettySize=auto;html=1;exitX=0.5;exitY=1;exitDx=0;exitDy=0;entryX=0.5;entryY=0;entryDx=0;entryDy=0;" edge="1" parent="1" source="gmvneLOKdEyDjxOqlReS-23" target="gmvneLOKdEyDjxOqlReS-24">
          <mxGeometry relative="1" as="geometry" />
        </mxCell>
        <mxCell id="gmvneLOKdEyDjxOqlReS-23" value="3. 处理命令行参数，设置驱动类型" style="rounded=1;whiteSpace=wrap;html=1;" vertex="1" parent="1">
          <mxGeometry x="822" y="303" width="138" height="60" as="geometry" />
        </mxCell>
        <mxCell id="gmvneLOKdEyDjxOqlReS-33" style="edgeStyle=orthogonalEdgeStyle;rounded=0;orthogonalLoop=1;jettySize=auto;html=1;exitX=0.5;exitY=1;exitDx=0;exitDy=0;entryX=0.5;entryY=0;entryDx=0;entryDy=0;" edge="1" parent="1" source="gmvneLOKdEyDjxOqlReS-24" target="gmvneLOKdEyDjxOqlReS-25">
          <mxGeometry relative="1" as="geometry" />
        </mxCell>
        <mxCell id="gmvneLOKdEyDjxOqlReS-24" value="4. &lt;strong&gt;检查超级用户权限&lt;/strong&gt;" style="rounded=1;whiteSpace=wrap;html=1;" vertex="1" parent="1">
          <mxGeometry x="822" y="385" width="138" height="60" as="geometry" />
        </mxCell>
        <mxCell id="gmvneLOKdEyDjxOqlReS-34" style="edgeStyle=orthogonalEdgeStyle;rounded=0;orthogonalLoop=1;jettySize=auto;html=1;exitX=0.5;exitY=1;exitDx=0;exitDy=0;entryX=0.5;entryY=0;entryDx=0;entryDy=0;" edge="1" parent="1" source="gmvneLOKdEyDjxOqlReS-25" target="gmvneLOKdEyDjxOqlReS-26">
          <mxGeometry relative="1" as="geometry" />
        </mxCell>
        <mxCell id="gmvneLOKdEyDjxOqlReS-25" value="5. 设置驱动路径" style="rounded=1;whiteSpace=wrap;html=1;" vertex="1" parent="1">
          <mxGeometry x="822" y="466" width="138" height="60" as="geometry" />
        </mxCell>
        <mxCell id="gmvneLOKdEyDjxOqlReS-35" style="edgeStyle=orthogonalEdgeStyle;rounded=0;orthogonalLoop=1;jettySize=auto;html=1;exitX=0.5;exitY=1;exitDx=0;exitDy=0;" edge="1" parent="1" source="gmvneLOKdEyDjxOqlReS-26" target="gmvneLOKdEyDjxOqlReS-27">
          <mxGeometry relative="1" as="geometry" />
        </mxCell>
        <mxCell id="gmvneLOKdEyDjxOqlReS-26" value="6. 检查并加载模块(driver)&lt;div&gt;insmod&lt;/div&gt;" style="rounded=1;whiteSpace=wrap;html=1;fillColor=#f8cecc;strokeColor=#b85450;" vertex="1" parent="1">
          <mxGeometry x="822" y="547" width="138" height="60" as="geometry" />
        </mxCell>
        <mxCell id="gmvneLOKdEyDjxOqlReS-27" value="7. 创建设备节点&lt;div&gt;mknod&lt;/div&gt;" style="rounded=1;whiteSpace=wrap;html=1;fillColor=#f8cecc;strokeColor=#b85450;" vertex="1" parent="1">
          <mxGeometry x="822" y="628" width="138" height="60" as="geometry" />
        </mxCell>
        <mxCell id="gmvneLOKdEyDjxOqlReS-28" value="" style="endArrow=none;dashed=1;html=1;dashPattern=1 3;strokeWidth=2;rounded=0;exitX=1;exitY=0;exitDx=0;exitDy=0;entryX=0;entryY=0.5;entryDx=0;entryDy=0;" edge="1" parent="1" source="gmvneLOKdEyDjxOqlReS-17" target="gmvneLOKdEyDjxOqlReS-20">
          <mxGeometry width="50" height="50" relative="1" as="geometry">
            <mxPoint x="712" y="345" as="sourcePoint" />
            <mxPoint x="762" y="295" as="targetPoint" />
          </mxGeometry>
        </mxCell>
        <mxCell id="gmvneLOKdEyDjxOqlReS-29" value="" style="endArrow=none;dashed=1;html=1;dashPattern=1 3;strokeWidth=2;rounded=0;exitX=1;exitY=1;exitDx=0;exitDy=0;entryX=0;entryY=0.5;entryDx=0;entryDy=0;" edge="1" parent="1" source="gmvneLOKdEyDjxOqlReS-17" target="gmvneLOKdEyDjxOqlReS-27">
          <mxGeometry width="50" height="50" relative="1" as="geometry">
            <mxPoint x="747" y="444" as="sourcePoint" />
            <mxPoint x="797" y="394" as="targetPoint" />
          </mxGeometry>
        </mxCell>
        <mxCell id="gmvneLOKdEyDjxOqlReS-39" style="edgeStyle=orthogonalEdgeStyle;rounded=0;orthogonalLoop=1;jettySize=auto;html=1;exitX=0.5;exitY=1;exitDx=0;exitDy=0;entryX=0.5;entryY=0;entryDx=0;entryDy=0;" edge="1" parent="1" source="gmvneLOKdEyDjxOqlReS-36" target="gmvneLOKdEyDjxOqlReS-37">
          <mxGeometry relative="1" as="geometry" />
        </mxCell>
        <mxCell id="gmvneLOKdEyDjxOqlReS-36" value="/test&lt;div&gt;run_test.sh&lt;/div&gt;" style="rounded=1;whiteSpace=wrap;html=1;" vertex="1" parent="1">
          <mxGeometry x="382" y="831" width="120" height="60" as="geometry" />
        </mxCell>
        <mxCell id="gmvneLOKdEyDjxOqlReS-40" style="edgeStyle=orthogonalEdgeStyle;rounded=0;orthogonalLoop=1;jettySize=auto;html=1;exitX=0.5;exitY=1;exitDx=0;exitDy=0;entryX=0.5;entryY=0;entryDx=0;entryDy=0;" edge="1" parent="1" source="gmvneLOKdEyDjxOqlReS-37" target="gmvneLOKdEyDjxOqlReS-38">
          <mxGeometry relative="1" as="geometry" />
        </mxCell>
        <mxCell id="gmvneLOKdEyDjxOqlReS-37" value="&lt;div&gt;/test&lt;/div&gt;&lt;div&gt;build_dfu.sh&lt;/div&gt;编译 test.c" style="rounded=1;whiteSpace=wrap;html=1;" vertex="1" parent="1">
          <mxGeometry x="382" y="928" width="120" height="60" as="geometry" />
        </mxCell>
        <mxCell id="gmvneLOKdEyDjxOqlReS-38" value="&lt;div&gt;/test&lt;/div&gt;&lt;div&gt;test&lt;/div&gt;&lt;div&gt;执行测试程序&lt;/div&gt;" style="rounded=1;whiteSpace=wrap;html=1;" vertex="1" parent="1">
          <mxGeometry x="382" y="1025" width="120" height="60" as="geometry" />
        </mxCell>
      </root>
    </mxGraphModel>
  </diagram>
</mxfile>
